<?xml version="1.0" encoding="UTF-8"?>
<svg width="180px" height="64px" viewBox="0 0 180 64" version="1.1" xmlns="http://www.w3.org/2000/svg" xmlns:xlink="http://www.w3.org/1999/xlink">
    <!-- Generator: Sketch 59.1 (86144) - https://sketch.com -->
    <title>Logo Copy</title>
    <desc>Created with Sketch.</desc>
    <g id="Website" stroke="none" stroke-width="1" fill="none" fill-rule="evenodd">
        <g id="minimal-launching-site" transform="translate(-411.000000, -2315.000000)">
            <g id="Logo-Copy" transform="translate(411.000000, 2316.000000)">
                <text id="EXPRESS" font-family="SukhumvitSet-Text, Sukhumvit Set" font-size="7.66080088" font-weight="normal" letter-spacing="21.8400034" fill="#000000">
                    <tspan x="19.3351902" y="61.9600069">EXPRESS</tspan>
                </text>
                <path d="M5.21572885,43.2011172 C4.13214565,43.2011172 3.1617872,43.0919519 2.30462437,42.873618 C1.44746155,42.655284 0.679261106,42.352047 -6.82121026e-13,41.9638978 L0.80055373,39.3924222 C1.38277754,39.7158799 2.04181265,39.9908148 2.77767885,40.2172351 C3.51354505,40.4436555 4.24535705,40.556864 4.97313681,40.556864 C5.89499117,40.556864 6.67127793,40.3749218 7.30202038,40.0110319 C7.93276284,39.647142 8.24812934,39.0851427 8.24812934,38.3250172 C8.24812934,37.9530409 8.15513665,37.6376744 7.96914849,37.3789083 C7.78316033,37.1201421 7.5324844,36.8937252 7.21711317,36.6996506 C6.90174194,36.505576 6.54594384,36.3398064 6.1497082,36.2023369 L4.9246184,35.7778008 L4.9246184,35.7778008 C4.42325901,35.616072 3.88956186,35.4179571 3.32351094,35.1834503 C2.75746002,34.9489435 2.23589235,34.6416633 1.75879229,34.2616006 C1.28169222,33.8815378 0.88546252,33.408488 0.570091292,32.8424371 C0.254720064,32.2763862 0.0970368157,31.5809626 0.0970368157,30.7561456 C0.0970368157,30.141576 0.206202142,29.5593609 0.424536069,29.0094829 C0.642869996,28.4596049 0.986538615,27.982512 1.45555224,27.5781899 C1.92456586,27.1738678 2.52295357,26.8544581 3.25073333,26.6199513 C3.97851308,26.3854445 4.85183569,26.2681929 5.87072735,26.2681929 C6.79258171,26.2681929 7.6376022,26.3571424 8.40581416,26.5350441 C9.17402613,26.7129458 9.90583813,26.9797944 10.6012721,27.3355978 L9.80071839,29.7615182 C9.18614882,29.4865792 8.5473295,29.2763349 7.88424128,29.1307789 C7.22115306,28.985223 6.6065927,28.9124461 6.04054178,28.9124461 C5.07016877,28.9124461 4.35048625,29.0822588 3.88147263,29.4218894 C3.41245901,29.7615199 3.17795572,30.1900949 3.17795572,30.7076272 C3.17795572,31.0796035 3.26690524,31.3990132 3.44480696,31.6658657 C3.62270868,31.9327183 3.85721197,32.1631784 4.14832387,32.357253 C4.43943578,32.5513276 4.77097491,32.7211404 5.14295123,32.8666963 C5.46843051,32.9940578 5.80009661,33.1152265 6.13795716,33.2302052 L6.28313382,33.2791028 C6.86535762,33.4731774 7.45565902,33.6955512 8.05405571,33.9462309 C8.6524524,34.1969106 9.19423587,34.5163203 9.67942237,34.9044695 C10.1646089,35.2926187 10.5608386,35.7656684 10.8681234,36.3236329 C11.1754081,36.8815974 11.3290482,37.5648914 11.3290482,38.3735356 C11.3290482,39.1983527 11.171365,39.9099489 10.8559938,40.5083456 C10.5406225,41.1067423 10.1120475,41.6080941 9.57025595,42.0124162 C9.02846436,42.4167383 8.38560188,42.7159322 7.64164924,42.9100068 C6.8976966,43.1040814 6.08906455,43.2011172 5.21572885,43.2011172 Z M33.7681216,33.7530127 L41.5341987,42.9100068 L37.8953181,42.9100068 L31.8547763,35.2683575 L31.8547763,33.2791028 L38.4695265,26.5593033 L41.3643842,26.5593033 L33.7681216,33.7530127 Z M31.102741,42.9100068 L27.9490445,42.9100068 L27.9490445,26.5593033 L31.102741,26.5593033 L31.102741,42.9100068 Z M64.0976999,35.9476152 L64.0976999,42.9100068 L60.9440034,42.9100068 L60.9440034,35.9476152 L55.4856825,26.5593033 L58.9062302,26.5593033 L62.5451108,33.2548436 L66.135473,26.5593033 L69.5560208,26.5593033 L64.0976999,35.9476152 Z M85.4482409,26.5593033 L88.6019374,26.5350441 L88.6019374,40.1929759 L95.8311801,40.1929759 L95.8311801,42.9100068 L85.4482409,42.9100068 L85.4482409,26.5593033 Z M115.216726,42.9100068 L112.063029,42.9100068 L112.063029,26.5593033 L115.216726,26.5593033 L115.216726,42.9100068 Z M142.607808,26.5593033 L145.761505,26.5593033 L145.761505,42.9100068 L142.607808,42.9100068 L137.028192,33.6429909 C136.688561,33.0769399 136.385324,32.5189838 136.118471,31.9691058 C135.851619,31.4192277 135.621159,30.845099 135.427084,30.2467023 L135.354306,30.2467023 C135.483689,30.9259634 135.584769,31.5849985 135.657546,32.2238274 C135.730324,32.8626563 135.766713,33.4408282 135.766713,33.9583605 L135.766713,42.9100068 L132.613016,42.9100068 L132.613016,26.5593033 L136.009305,26.5593033 L141.34633,35.8263192 C141.68596,36.3923701 141.989197,36.9503262 142.25605,37.5002043 C142.522903,38.0500823 142.753363,38.6242111 142.947437,39.2226078 L143.020215,39.2226078 C142.890832,38.5433467 142.789753,37.8843115 142.716975,37.2454826 C142.644197,36.6066537 142.607808,36.0284818 142.607808,35.5109496 L142.607808,26.5593033 Z M169.804818,34.2252118 L176.74295,42.9100068 L173.965215,42.5041495 L167.063528,35.2683575 L167.063528,33.2791028 L173.031292,26.5593033 L176.573135,26.5593033 L169.804818,34.2252118 Z M166.311492,42.9100068 L163.157796,42.9100068 L163.157796,26.5593033 L166.311492,26.5593033 L166.311492,42.9100068 Z" id="SKYLINK" fill="#000000" fill-rule="nonzero"></path>
                <path d="M19.9651903,43.4000068 C48.4450353,14.4666689 75.0925163,0 99.9076335,0 C124.722751,0 151.275278,14.4666689 179.565215,43.4000068 L174.245215,43.4000068 C149.522993,14.4666689 124.743799,0 99.9076335,0 C75.0714676,0 50.1973201,14.4666689 25.2851912,43.4000068 L19.9651903,43.4000068 Z" id="Rectangle" stroke="#9B9B9B" stroke-width="0.5" fill="#9B9B9B"></path>
            </g>
        </g>
    </g>
</svg>