<?xml version="1.0" encoding="UTF-8"?>
<svg width="30px" height="30px" viewBox="0 0 30 30" version="1.1" xmlns="http://www.w3.org/2000/svg" xmlns:xlink="http://www.w3.org/1999/xlink">
    <!-- Generator: Sketch 59.1 (86144) - https://sketch.com -->
    <title>launchpad-icon</title>
    <desc>Created with Sketch.</desc>
    <g id="Website" stroke="none" stroke-width="1" fill="none" fill-rule="evenodd">
        <g id="minimal-launching-site" transform="translate(-434.000000, -735.000000)" fill="#FFFFFF">
            <g id="Group-4" transform="translate(276.000000, 714.000000)">
                <g id="Group-2">
                    <g id="launchpad-icon" transform="translate(158.000000, 21.000000)">
                        <path d="M29.3841609,0.902400027 C29.5737609,0.712880021 29.5737609,0.405360012 29.3841609,0.215840006 C29.1946409,0.0262400008 28.8872009,0.0262400008 28.6976009,0.215840006 L26.9492808,1.96408006 C26.7596808,2.15368006 26.7596808,2.46112007 26.9492808,2.65072008 C27.1388008,2.84032008 27.4463208,2.84032008 27.6358408,2.65072008 L29.3841609,0.902400027" id="Fill-1"></path>
                        <path d="M1.31824004,28.2905608 C6.98560021,28.8196809 7.77160023,24.9337607 7.88040023,23.9108007 L6.93992021,22.9475207 L6.6609602,22.6685607 L5.69296017,21.7232806 C4.66776014,21.8299207 0.774640023,22.6087207 1.31824004,28.2905608" id="Fill-2"></path>
                        <path d="M17.4583205,7.26200022 C18.7067206,7.26200022 19.9552806,7.73832023 20.9079206,8.69096026 C21.8604807,9.64360029 22.3368007,10.8920803 22.3368007,12.1405604 C22.3368007,13.3890404 21.8604807,14.6376004 20.9079206,15.5902405 C20.2434406,16.2546405 19.4351206,16.6873605 18.5832806,16.8883205 L18.5822406,16.9039205 L18.2748005,16.9507205 L18.2740005,16.9508805 L18.1952005,16.9628005 C17.4424005,17.0775205 16.6669605,17.0151205 15.9360805,16.7754405 C15.2299205,16.5440805 14.5673604,16.1488805 14.0086404,15.5902405 C13.0560004,14.6376004 12.5796804,13.3890404 12.5796804,12.1405604 C12.5796804,11.8679204 12.6024004,11.5951203 12.6478404,11.3255203 L12.6480004,11.3248003 L12.6949604,11.0165603 L12.7104804,11.0156003 C12.9115204,10.1636803 13.3442404,9.35536028 14.0086404,8.69096026 C14.9612804,7.73832023 16.2097605,7.26200022 17.4583205,7.26200022 Z M7.49184022,22.1164807 L7.81928023,22.4536007 L10.3287203,24.9630407 C20.5018406,19.3025606 24.8316007,13.7731204 26.5736008,9.52968028 C28.1120808,5.78200017 27.6223208,3.08016009 27.3888808,2.20992007 C26.5186408,1.97648006 23.8168007,1.48672004 20.0691206,3.02528009 C17.0217605,4.27624013 13.3113604,6.8616802 9.36536028,11.9873604 L9.36440028,11.9885604 L9.24560028,12.1441604 C8.46960025,13.1608004 7.68440023,14.2771204 6.89336021,15.5014405 C6.14168018,16.6648005 5.38816016,17.9190405 4.63616014,19.2704806 L7.14544021,21.7797606 L7.48232022,22.1070407 L7.49184022,22.1164807 L7.49184022,22.1164807 Z" id="Fill-3"></path>
                        <path d="M20.2212806,9.37760028 C19.4583206,8.61464026 18.4582406,8.23320025 17.4583205,8.23320025 C16.4582405,8.23320025 15.4581605,8.61464026 14.6952004,9.37760028 C14.2281604,9.84464029 13.9040804,10.4006403 13.7229604,10.9910403 C14.2435204,11.0219203 14.7604004,11.1308003 15.2548805,11.3175203 C15.7823205,11.5167203 16.2832005,11.8036004 16.7344005,12.1778404 L17.6684805,11.2436803 C17.8581605,11.0540803 18.1655205,11.0540803 18.3552005,11.2436803 C18.5448006,11.4332803 18.5448006,11.7407203 18.3552005,11.9303204 L17.4210405,12.8644804 C17.7952005,13.3156804 18.0820005,13.8164804 18.2813605,14.3440004 C18.4680806,14.8383204 18.5768806,15.3553605 18.6078406,15.8759205 C19.1982406,15.6948005 19.7541606,15.3706405 20.2212806,14.9036004 C20.9841606,14.1406404 21.3656006,13.1406404 21.3656006,12.1405604 C21.3656006,11.1405603 20.9841606,10.1404803 20.2212806,9.37760028" id="Fill-4"></path>
                        <path d="M16.4069605,13.1918404 C15.9668805,12.7517604 15.4562405,12.4292004 14.9133604,12.2241604 C14.4761604,12.0590404 14.0168004,11.9688004 13.5552804,11.9534404 C13.5523204,12.0157604 13.5508004,12.0781604 13.5508004,12.1405604 C13.5508004,13.1325604 13.9261604,14.1244804 14.6768804,14.8851204 C14.6829604,14.8912804 14.6890404,14.8974404 14.6952004,14.9036004 C15.4581605,15.6665605 16.4582405,16.0480805 17.4583205,16.0480805 C17.5206405,16.0480805 17.5830405,16.0465605 17.6453605,16.0435205 C17.6300005,15.5819205 17.5397605,15.1226405 17.3747205,14.6854404 C17.1696005,14.1425604 16.8471205,13.6320004 16.4069605,13.1918404" id="Fill-5"></path>
                        <path d="M14.6220804,23.5223207 C14.1376004,23.8353607 13.6356004,24.1496807 13.1156804,24.4651207 C12.4284004,24.8825607 11.7113603,25.3008808 10.9632003,25.7196008 C10.9104803,26.3109608 10.9681603,26.9447208 11.3282403,27.5617608 C11.7285603,28.2479208 12.5035204,28.9349609 13.9068804,29.5648009 C15.6674405,27.7106408 16.5176005,25.6812808 16.9224805,24.0334407 C17.1523205,23.0981607 17.2388805,22.2888807 17.2672805,21.7048806 C16.4449605,22.3072007 15.5643205,22.9135207 14.6220804,23.5223207" id="Fill-6"></path>
                        <path d="M2.03816006,18.2716805 C2.65464008,18.6315206 3.2877601,18.6893606 3.87848012,18.6369606 C5.01368015,16.6085605 6.14584018,14.8084804 7.26560022,13.2116004 C7.27224022,13.2020804 7.27888022,13.1925604 7.28560022,13.1830404 C7.48920022,12.8929604 7.69232023,12.6096004 7.89504024,12.3327204 C7.31112022,12.3611204 6.50192019,12.4476804 5.56656017,12.6775204 C3.91880012,13.0824004 1.88944006,13.9325604 0.035200001,15.6930405 C0.66504002,17.0964805 1.35208004,17.8714405 2.03816006,18.2716805" id="Fill-7"></path>
                    </g>
                </g>
            </g>
        </g>
    </g>
</svg>