<?xml version="1.0" encoding="UTF-8"?>
<svg width="670px" height="236px" viewBox="0 0 670 236" version="1.1" xmlns="http://www.w3.org/2000/svg" xmlns:xlink="http://www.w3.org/1999/xlink">
    <!-- Generator: Sketch 59.1 (86144) - https://sketch.com -->
    <title>skylink-express-logo</title>
    <desc>Created with Sketch.</desc>
    <g id="skylink-express-logo" stroke="none" stroke-width="1" fill="none" fill-rule="evenodd">
        <g id="Logo" transform="translate(68.000000, 35.000000)">
            <text id="EXPRESS" font-family="SukhumvitSet-Text, Sukhumvit Set" font-size="21.888001" font-weight="normal" letter-spacing="62.4000056" fill="#000000">
                <tspan x="55.2433969" y="157.600011">EXPRESS</tspan>
            </text>
            <path d="M14.9020814,123.431755 C11.8061296,123.431755 9.0336771,123.119854 6.58464062,122.496043 C4.13560414,121.872232 1.94074589,121.00584 -6.82121026e-13,119.896843 L2.28729622,112.54977 C3.95079269,113.473935 5.83375004,114.259463 7.93622475,114.906378 C10.0386995,115.553294 12.1295907,115.876746 14.2089613,115.876746 C16.8428308,115.876746 19.0607928,115.356911 20.862914,114.317226 C22.6650351,113.277541 23.5660822,111.671829 23.5660822,109.500042 C23.5660822,108.437252 23.3003888,107.536205 22.7689941,106.796873 C22.2375994,106.057542 21.5213825,105.410636 20.6203219,104.856137 C19.7192614,104.301638 18.7026954,103.828011 17.5705937,103.435241 L14.0703373,102.222281 L14.0703373,102.222281 C12.637882,101.760199 11.1130331,101.194156 9.49574489,100.524137 C7.87845666,99.8541175 6.38826342,98.9761742 5.02512047,97.8902806 C3.66197753,96.8043871 2.52989274,95.4528165 1.62883215,93.8355283 C0.727771563,92.21824 0.277248026,90.2313157 0.277248026,87.8746957 C0.277248026,86.1187827 0.589148936,84.4553112 1.21296011,82.8842312 C1.83677129,81.3131512 2.81868157,79.9500287 4.15872039,78.7948228 C5.49875922,77.639617 7.20843828,76.727018 9.28780887,76.0569986 C11.3671795,75.3869792 13.8623867,75.0519745 16.7735056,75.0519745 C19.407375,75.0519745 21.8217191,75.306116 24.0166103,75.8144066 C26.2115014,76.3226971 28.3023927,77.0851216 30.2893469,78.1017028 L28.0020506,85.0329034 C26.2461377,84.2473634 24.4209398,83.6466654 22.5264021,83.2307913 C20.6318645,82.8149171 18.8759779,82.6069832 17.2586896,82.6069832 C14.4861955,82.6069832 12.4299599,83.0921624 11.089921,84.0625353 C9.74988222,85.0329083 9.07987285,86.2574081 9.07987285,87.7360717 C9.07987285,88.7988611 9.33401434,89.7114601 9.84230493,90.4738959 C10.3505955,91.2363318 11.0206049,91.8947893 11.8523531,92.4492881 C12.6841014,93.0037869 13.631356,93.4889661 14.6941454,93.9048403 C15.6240861,94.2687301 16.5717035,94.6149264 17.5370193,94.9434369 L17.9518097,95.0831444 C19.6153062,95.6376432 21.3018815,96.2729969 23.0115862,96.9892246 C24.7212909,97.7054522 26.2692435,98.6180512 27.6554906,99.7270488 C29.0417377,100.836046 30.1738224,102.187617 31.0517789,103.781801 C31.9297354,105.375985 32.368707,107.328254 32.368707,109.638666 C32.368707,111.995286 31.9181835,114.028418 31.0171229,115.738122 C30.1160623,117.447827 28.8915625,118.880261 27.3435866,120.035467 C25.7956107,121.190673 23.9588609,122.045512 21.8332821,122.600011 C19.7077032,123.15451 17.3973261,123.431755 14.9020814,123.431755 Z M96.4803409,96.4371724 L118.669131,122.600011 L108.27233,122.600011 L91.0136404,100.766729 L91.0136404,95.0831444 L109.912925,75.8837186 L118.183947,75.8837186 L96.4803409,96.4371724 Z M88.8649682,122.600011 L79.8544073,122.600011 L79.8544073,75.8837186 L88.8649682,75.8837186 L88.8649682,122.600011 Z M183.136273,102.707465 L183.136273,122.600011 L174.125712,122.600011 L174.125712,102.707465 L158.530511,75.8837186 L168.303503,75.8837186 L178.700304,95.0138324 L188.958481,75.8837186 L198.731474,75.8837186 L183.136273,102.707465 Z M244.137814,75.8837186 L253.148375,75.8144066 L253.148375,114.837066 L273.803353,114.837066 L273.803353,122.600011 L244.137814,122.600011 L244.137814,75.8837186 Z M329.190622,122.600011 L320.180061,122.600011 L320.180061,75.8837186 L329.190622,75.8837186 L329.190622,122.600011 Z M407.450853,75.8837186 L416.461414,75.8837186 L416.461414,122.600011 L407.450853,122.600011 L391.509092,96.1228245 C390.538719,94.5055362 389.672328,92.911376 388.909892,91.340296 C388.147456,89.769216 387.488998,88.1288483 386.934499,86.4191436 L386.726563,86.4191436 C387.096229,88.3598894 387.385026,90.2428468 387.592964,92.0680721 C387.800901,93.8932974 387.904868,95.545217 387.904868,97.0238806 L387.904868,122.600011 L378.894307,122.600011 L378.894307,75.8837186 L388.597988,75.8837186 L403.846629,102.360905 C404.817002,103.978193 405.683393,105.572354 406.445829,107.143434 C407.208265,108.714514 407.866723,110.354881 408.421221,112.064586 L408.629158,112.064586 C408.259492,110.12384 407.970694,108.240883 407.762757,106.415657 C407.55482,104.590432 407.450853,102.938513 407.450853,101.459849 L407.450853,75.8837186 Z M485.156589,97.7863126 L504.979822,122.600011 L497.043436,121.440419 L477.324332,100.766729 L477.324332,95.0831444 L494.375085,75.8837186 L504.494638,75.8837186 L485.156589,97.7863126 Z M475.17566,122.600011 L466.165099,122.600011 L466.165099,75.8837186 L475.17566,75.8837186 L475.17566,122.600011 Z" id="SKYLINK" fill="#000000" fill-rule="nonzero"></path>
            <path d="M57.0433971,124.000011 C138.414377,41.333337 214.550032,0 285.450362,0 C356.350692,0 432.215051,41.333337 513.043438,124.000011 L497.843436,124.000011 C427.208523,41.333337 356.410831,0 285.450362,0 C214.489893,0 143.420905,41.333337 72.2433984,124.000011 L57.0433971,124.000011 Z" id="Rectangle" stroke="#9B9B9B" stroke-width="0.5" fill="#9B9B9B"></path>
        </g>
    </g>
</svg>